<?xml version="1.0"?>
<svg xmlns="http://www.w3.org/2000/svg" xmlns:xlink="http://www.w3.org/1999/xlink" viewBox="250 410 500 178" role="img" aria-label="NOVAËN">
  <defs>
    <linearGradient id="mark-a" x1="500" y1="446" x2="500" y2="546" gradientUnits="userSpaceOnUse">
      <stop offset="0" stop-color="#43e0e6"></stop>
      <stop offset="1" stop-color="#25bac0"></stop>
    </linearGradient>
    <linearGradient id="mark-b" x1="525" y1="446" x2="525" y2="546" gradientUnits="userSpaceOnUse">
      <stop offset="0" stop-color="#25bac0"></stop>
      <stop offset="1" stop-color="#1c8f94"></stop>
    </linearGradient>
    
  </defs>
  <g>
    <polygon class="cls-2" points="294.4 579.46 297.19 579.46 297.19 574.56 302.71 574.56 302.71 572.1 297.19 572.1 297.19 569.4 302.99 569.4 302.99 566.94 294.4 566.94 294.4 579.46"></polygon>
    <path class="cls-2" d="m318.75,570.1c-.52.27-.95.61-1.3,1v-1.27h-2.69v9.64h2.69v-4.17c0-.93.2-1.68.59-2.25.39-.57.99-.85,1.79-.85h.52l-.02-2.53c-.54.01-1.07.16-1.59.43Z"></path>
    <path class="cls-2" d="m336.19,569.67c-1.46,0-2.68.48-3.64,1.44-.97.96-1.45,2.14-1.45,3.54s.48,2.57,1.45,3.53c.97.96,2.18,1.43,3.64,1.43s2.68-.48,3.64-1.43,1.45-2.13,1.45-3.53-.48-2.58-1.45-3.54c-.97-.96-2.18-1.44-3.64-1.44Zm1.72,6.9c-.45.5-1.02.74-1.72.74s-1.27-.25-1.72-.74c-.45-.5-.67-1.14-.67-1.93s.22-1.43.67-1.93c.45-.5,1.02-.75,1.72-.75s1.27.25,1.72.75c.45.5.67,1.15.67,1.93s-.22,1.43-.67,1.93Z"></path>
    <path class="cls-2" d="m364.34,569.67c-.63,0-1.26.16-1.89.48-.63.32-1.13.78-1.5,1.36-.25-.51-.62-.95-1.12-1.31-.5-.36-1.05-.54-1.66-.54-.96,0-1.8.42-2.54,1.25v-1.09h-2.69v9.64h2.69v-5.19c0-.75.2-1.32.6-1.71.4-.39.86-.58,1.38-.58s.9.18,1.13.54c.23.36.35.92.35,1.68v5.27h2.7v-5.19c0-.75.2-1.32.59-1.71.39-.39.86-.58,1.4-.58,1.09,0,1.63.74,1.63,2.22v5.27h2.7v-5.86c0-1.28-.35-2.25-1.04-2.93-.69-.67-1.61-1.01-2.74-1.01Z"></path>
    <path class="cls-2" d="m400.19,571.95c-1.19-.29-1.95-.55-2.27-.76-.33-.21-.49-.5-.49-.87s.13-.66.4-.88c.27-.22.64-.33,1.1-.33,1.16,0,2.28.41,3.37,1.24l1.41-2.04c-.62-.53-1.35-.93-2.19-1.22-.84-.29-1.67-.43-2.51-.43-1.28,0-2.34.32-3.2.97-.85.64-1.28,1.56-1.28,2.75s.34,2.06,1.01,2.61c.67.56,1.74,1.01,3.2,1.35.92.23,1.53.45,1.84.67.31.22.47.52.47.9s-.15.67-.44.9c-.29.22-.7.33-1.21.33-1.15,0-2.39-.59-3.74-1.77l-1.67,2.04c1.59,1.47,3.37,2.2,5.36,2.2,1.37,0,2.48-.35,3.32-1.05.84-.7,1.26-1.61,1.26-2.73s-.33-1.98-.99-2.56c-.66-.59-1.58-1.02-2.77-1.32Z"></path>
    <path class="cls-2" d="m421.33,569.67c-1.12,0-2.1.41-2.92,1.24v-1.08h-2.69v13.11h2.69v-4.75c.72.94,1.66,1.42,2.84,1.42s2.2-.48,3.08-1.43c.88-.96,1.32-2.14,1.32-3.56s-.44-2.6-1.32-3.54c-.88-.94-1.88-1.41-3-1.41Zm.91,6.9c-.47.5-1.01.74-1.63.74s-1.15-.25-1.59-.74c-.44-.5-.65-1.13-.65-1.92s.22-1.43.65-1.95c.44-.52.97-.78,1.6-.78s1.18.26,1.63.79c.45.53.68,1.18.68,1.95s-.23,1.41-.7,1.91Z"></path>
    <path class="cls-2" d="m441.53,569.67c-1.62,0-3.07.46-4.33,1.38l1.2,1.74c.36-.27.8-.5,1.32-.69.52-.19,1.01-.28,1.48-.28,1.09,0,1.63.51,1.63,1.54v.05h-2.01c-1.24,0-2.22.24-2.94.73s-1.07,1.23-1.07,2.21.35,1.77,1.04,2.36c.69.59,1.55.89,2.57.89s1.88-.44,2.57-1.31v1.16h2.53v-6.14c0-1.27-.37-2.19-1.11-2.78-.74-.58-1.7-.88-2.87-.88Zm1.27,6.13c0,.49-.18.88-.55,1.17-.36.29-.79.44-1.26.44s-.84-.09-1.1-.28c-.26-.18-.39-.45-.39-.8,0-.67.54-1,1.61-1h1.68v.47Z"></path>
    <path class="cls-2" d="m461.62,570.1c-.52.27-.95.61-1.3,1v-1.27h-2.69v9.64h2.69v-4.17c0-.93.2-1.68.59-2.25.39-.57.99-.85,1.79-.85h.52l-.02-2.53c-.54.01-1.07.16-1.59.43Z"></path>
    <polygon class="cls-2" points="483.73 569.81 480.34 569.81 477.35 573 477.35 566.17 474.67 566.17 474.67 579.46 477.35 579.46 477.35 576.69 478.23 575.77 480.68 579.46 483.87 579.46 480.06 573.71 483.73 569.81"></polygon>
    <polygon class="cls-2" points="508.62 569.36 512.17 569.36 512.17 579.46 514.96 579.46 514.96 569.36 518.51 569.36 518.51 566.94 508.62 566.94 508.62 569.36"></polygon>
    <path class="cls-2" d="m533.42,569.67c-1.46,0-2.68.48-3.64,1.44-.97.96-1.45,2.14-1.45,3.54s.48,2.57,1.45,3.53c.97.96,2.18,1.43,3.64,1.43s2.68-.48,3.64-1.43,1.45-2.13,1.45-3.53-.48-2.58-1.45-3.54c-.97-.96-2.18-1.44-3.64-1.44Zm1.72,6.9c-.45.5-1.02.74-1.72.74s-1.27-.25-1.72-.74c-.45-.5-.67-1.14-.67-1.93s.22-1.43.67-1.93c.45-.5,1.02-.75,1.72-.75s1.27.25,1.72.75c.45.5.67,1.15.67,1.93s-.22,1.43-.67,1.93Z"></path>
    <polygon class="cls-2" points="563.81 569.36 567.35 569.36 567.35 579.46 570.15 579.46 570.15 569.36 573.69 569.36 573.69 566.94 563.81 566.94 563.81 569.36"></polygon>
    <path class="cls-2" d="m590.46,569.67c-1.01,0-1.92.41-2.73,1.24v-4.73h-2.69v13.29h2.69v-5.19c0-.75.2-1.32.6-1.71.4-.39.87-.58,1.41-.58,1.09,0,1.63.74,1.63,2.22v5.27h2.69v-5.86c0-1.19-.35-2.15-1.04-2.87-.69-.72-1.54-1.08-2.55-1.08Z"></path>
    <path class="cls-2" d="m610.53,569.67c-1.33,0-2.47.45-3.45,1.34-.97.9-1.46,2.1-1.46,3.62s.48,2.73,1.43,3.63c.95.9,2.16,1.35,3.63,1.35s2.74-.51,3.82-1.54l-1.5-1.63c-.61.63-1.39.95-2.33.95-.59,0-1.11-.17-1.58-.5-.47-.33-.74-.76-.82-1.29h7.02v-1.43c0-1.4-.46-2.5-1.39-3.3-.93-.8-2.05-1.2-3.38-1.2Zm-2.19,4.01c.07-.55.33-.98.77-1.31.44-.32.93-.48,1.46-.48s.98.16,1.35.47c.37.31.58.75.64,1.33h-4.23Z"></path>
    <path class="cls-2" d="m646.87,571.95c-1.19-.29-1.95-.55-2.27-.76-.33-.21-.49-.5-.49-.87s.13-.66.4-.88c.27-.22.64-.33,1.1-.33,1.16,0,2.28.41,3.37,1.24l1.41-2.04c-.62-.53-1.35-.93-2.19-1.22-.84-.29-1.67-.43-2.51-.43-1.28,0-2.34.32-3.2.97-.85.64-1.28,1.56-1.28,2.75s.34,2.06,1.01,2.61c.67.56,1.74,1.01,3.2,1.35.92.23,1.53.45,1.84.67.31.22.47.52.47.9s-.15.67-.44.9c-.29.22-.7.33-1.21.33-1.15,0-2.39-.59-3.74-1.77l-1.67,2.04c1.59,1.47,3.37,2.2,5.36,2.2,1.37,0,2.48-.35,3.32-1.05.84-.7,1.26-1.61,1.26-2.73s-.33-1.98-.99-2.56c-.66-.59-1.58-1.02-2.77-1.32Z"></path>
    <path class="cls-2" d="m666.32,577.26c-.26,0-.49-.1-.68-.31-.19-.21-.29-.5-.29-.87v-4.32h2.33v-1.93h-2.33v-2.88h-2.7v2.88h-1.13v1.93h1.13v4.44c0,1.05.32,1.88.96,2.49.64.61,1.42.91,2.35.91s1.81-.38,2.64-1.15l-1-1.88c-.35.45-.77.68-1.27.68Z"></path>
    <path class="cls-2" d="m683.91,569.67c-1.62,0-3.07.46-4.33,1.38l1.2,1.74c.36-.27.8-.5,1.32-.69.52-.19,1.01-.28,1.48-.28,1.09,0,1.63.51,1.63,1.54v.05h-2.01c-1.24,0-2.22.24-2.94.73s-1.07,1.23-1.07,2.21.35,1.77,1.04,2.36c.69.59,1.55.89,2.57.89s1.88-.44,2.57-1.31v1.16h2.53v-6.14c0-1.27-.37-2.19-1.11-2.78-.74-.58-1.7-.88-2.87-.88Zm1.27,6.13c0,.49-.18.88-.55,1.17-.36.29-.79.44-1.26.44s-.84-.09-1.1-.28c-.26-.18-.38-.45-.38-.8,0-.67.54-1,1.61-1h1.68v.47Z"></path>
    <path class="cls-2" d="m704,570.1c-.52.27-.95.61-1.3,1v-1.27h-2.69v9.64h2.69v-4.17c0-.93.2-1.68.59-2.25.39-.57.99-.85,1.79-.85h.52l-.02-2.53c-.54.01-1.07.16-1.59.43Z"></path>
  </g>
  <g>
    <polygon class="cls-2" points="272.04 446.73 256.66 461.47 256.66 521.54 273.47 521.54 273.47 462.87 315.33 462.87 315.33 521.54 332.14 521.54 332.14 461.47 316.76 446.73 272.04 446.73"></polygon>
    <path class="cls-2" d="m368.23,446.73l-15.38,14.77v45.15l15.38,14.9h44.71l15.38-14.9v-45.15l-15.38-14.77h-44.71Zm43.29,58.67h-41.87v-42.53h41.87v42.53Z"></path>
    <polygon class="cls-2" points="649.95 505.13 591.28 505.13 591.28 491.61 649.95 491.61 649.95 475.47 591.28 475.47 591.28 462.21 649.95 462.21 649.95 445.8 589.86 445.8 574.47 460.8 574.47 506.54 589.86 521.54 649.95 521.54 649.95 505.13"></polygon>
    <rect class="cls-1" x="589.3" y="417.06" width="16.54" height="16.14"></rect>
    <rect class="cls-4" x="618.31" y="417.06" width="16.81" height="16.14"></rect>
    <polygon class="cls-2" points="727.96 446.73 683.25 446.73 667.86 461.47 667.86 521.54 684.67 521.54 684.67 462.87 726.54 462.87 726.54 521.54 743.34 521.54 743.34 461.47 727.96 446.73"></polygon>
    <g>
      <g>
        <polygon class="cls-5" points="503.19 519.08 517.49 482.13 502.57 482.13 493.17 505.1 471.97 505.1 471.73 504.2 458.12 446.57 440.91 446.57 455.01 505.99 468.31 519.08 503.19 519.08"></polygon>
        <polygon class="cls-6" points="511.17 460.56 532.44 460.56 532.63 461.52 546.23 519.08 563.44 519.08 549.34 459.67 536.05 446.57 501.17 446.57 487.63 482.12 502.56 482.12 511.17 460.56"></polygon>
      </g>
      <polygon class="cls-3" points="569.06 546.37 462.69 546.37 459.32 531.55 565.52 531.55 569.06 546.37"></polygon>
    </g>
  </g>
</svg>